<?xml version="1.0" encoding="utf-8"?>
<!-- Generator: Adobe Illustrator 24.3.0, SVG Export Plug-In . SVG Version: 6.00 Build 0)  -->
<svg version="1.1" id="Capa_1" xmlns="http://www.w3.org/2000/svg" xmlns:xlink="http://www.w3.org/1999/xlink" x="0px" y="0px"
	 viewBox="0 0 1080 1080" style="enable-background:new 0 0 1080 1080;" xml:space="preserve">
<style type="text/css">
	.st0{fill:#E5E5E5;}
	.st1{fill:#3F51B5;}
	.st2{fill:#6E84CE;}
	.st3{fill:#4E67D1;}
	.st4{fill:none;stroke:#4F4F4F;stroke-width:4.632;stroke-miterlimit:10;stroke-dasharray:13.8959,13.8959;}
	.st5{fill:#81664F;}
	.st6{fill:#E3D415;}
	.st7{fill:#F8E71C;}
	.st8{fill:#676767;}
	.st9{fill:#4F4F4F;}
</style>
<circle class="st0" cx="540" cy="540" r="527.2"/>
<ellipse class="st1" cx="588.9" cy="405" rx="115.3" ry="64.7"/>
<polygon class="st2" points="430.2,650.7 411.7,809.2 732.7,889.1 752.1,739.2 "/>
<polygon class="st3" points="343.3,330.3 188.9,344.6 270.1,667.6 430.2,650.7 "/>
<polygon class="st2" points="752.1,739.2 883.1,830.9 795.1,511.7 663,417.8 "/>
<polygon class="st3" points="430.2,650.7 533.4,547.5 714.1,601.9 752.1,739.2 "/>
<polygon class="st2" points="492.2,371 533.4,547.5 430.2,650.7 343.3,330.3 "/>
<polygon class="st1" points="714.1,601.9 533.4,547.5 492.2,371 663,417.8 "/>
<polygon class="st3" points="663,417.8 806.8,274 482.7,190.9 375.7,297.8 591.5,362.1 "/>
<polygon class="st1" points="835,656.3 891.1,600.2 806.8,274 663,417.8 795.1,511.7 "/>
<polygon class="st1" points="663,417.8 591.5,362.1 265.3,262.8 343.3,330.3 "/>
<g>
	<path class="st4" d="M483.9,477.6c0,0-82-21.5-126.4,6.5c-48.3,30.5-51.4,83.2-51.4,83.2s-8.4,31.4,14.8,52.5
		c23.2,21.1,42.3-4.5,42.3-4.5s15-23.4-10.2-46.8c-17.7-16.4-51.9-19.9-77.4-5c-25.5,15-47.6,36.5-55.7,67.1
		c-8.1,30.6-3.3,51-3.3,51"/>
	<g>
		<path class="st5" d="M217.7,679.6c0.8,6,9.3,19.6,9.3,19.6l2.5-0.8c0,0-8.1-16.4-7.2-20.3L217.7,679.6z"/>
		<path class="st6" d="M268.8,797.8c0,0,17.9-31.2,9.2-67.1c-8.7-35.9-52.7-37.3-52.7-37.3L268.8,797.8z"/>
		<path class="st7" d="M268.8,797.8c0,0-34.7-9.3-54.1-40.7c-19.4-31.4,10.6-63.7,10.6-63.7L268.8,797.8z"/>
	</g>
</g>
<polygon class="st8" points="760.1,297.4 776.5,281 729.6,269 714.1,284.5 "/>
<polygon class="st9" points="730.6,326.9 752.8,304.7 693.8,288.1 670.2,308.1 "/>
</svg>
