<?xml version="1.0" encoding="utf-8"?>
<!-- Generator: Adobe Illustrator 24.3.0, SVG Export Plug-In . SVG Version: 6.00 Build 0)  -->
<svg version="1.1" id="Capa_1" xmlns="http://www.w3.org/2000/svg" xmlns:xlink="http://www.w3.org/1999/xlink" x="0px" y="0px"
	 viewBox="0 0 1080 1080" style="enable-background:new 0 0 1080 1080;" xml:space="preserve">
<style type="text/css">
	.st0{fill:#E5E5E5;}
	.st1{fill:#4E67D1;}
	.st2{fill:#6E84CE;}
	.st3{fill:#3F51B5;}
	.st4{fill:#4F4F4F;}
	.st5{fill:#676767;}
	.st6{fill:none;stroke:#8E8E8E;stroke-width:4.632;stroke-miterlimit:10;stroke-dasharray:13.8959,13.8959;}
	.st7{fill:#81664F;}
	.st8{fill:#E3D415;}
	.st9{fill:#F8E71C;}
</style>
<circle class="st0" cx="540" cy="540" r="527.2"/>
<polygon class="st1" points="596.5,194.5 231.7,411.7 264.7,580.1 730.2,302.2 "/>
<polygon class="st2" points="761.8,296 848.3,496.2 393.2,772.4 252.4,601.1 "/>
<polyline class="st3" points="252.1,600.8 761.8,296 754.5,279.1 240.4,586.5 252.4,601.1 "/>
<polygon class="st3" points="285.5,607.4 749.3,331.2 822.3,487.5 398.4,741.1 "/>
<g>
	<rect x="303.3" y="393.1" transform="matrix(0.866 -0.5 0.5 0.866 -183.0577 217.6239)" class="st3" width="22.6" height="114.6"/>
	<rect x="360.1" y="359.4" transform="matrix(0.866 -0.5 0.5 0.866 -158.5958 241.5028)" class="st3" width="22.6" height="114.6"/>
	<rect x="416.9" y="327.8" transform="matrix(0.866 -0.5 0.5 0.866 -135.2039 265.6684)" class="st3" width="22.6" height="114.6"/>
	<rect x="473.6" y="294.1" transform="matrix(0.866 -0.5 0.5 0.866 -110.742 289.5474)" class="st3" width="22.6" height="114.6"/>
	<rect x="530.4" y="262.9" transform="matrix(0.866 -0.5 0.5 0.866 -87.509 313.7556)" class="st3" width="22.6" height="114.6"/>
	<rect x="587.2" y="229.1" transform="matrix(0.866 -0.5 0.5 0.866 -63.0471 337.6345)" class="st3" width="22.6" height="114.6"/>
</g>
<g>
	<polygon class="st4" points="417.5,473.6 448.8,454.5 560,558.7 528.7,577.8 	"/>
	<polygon class="st5" points="620.8,727.2 528.7,577.8 560,558.7 648.6,713.3 	"/>
	<polygon class="st4" points="558.5,672.1 620.8,727.2 579.1,659.6 	"/>
</g>
<g>
	<polygon class="st4" points="575.2,376.4 543.7,395.2 583.9,542.1 615.4,523.4 	"/>
	<polygon class="st5" points="704.4,674.7 615.4,523.4 583.9,542.1 679.1,692.7 	"/>
	<polygon class="st4" points="684.7,595.5 704.4,674.7 664.9,607.5 	"/>
</g>
<path class="st6" d="M434.3,583.7c0,0-30.1,79.3-6.9,126.4c25.2,51.2,77.3,59.9,77.3,59.9s30.3,11.7,53.8-9.2
	c23.4-20.8,0-42.6,0-42.6s-21.7-17.4-47.6,5.2c-18.2,15.9-25.3,49.5-13.2,76.4c12.2,26.9,31.3,51.2,60.8,62.5
	c29.5,11.3,50.4,8.7,50.4,8.7"/>
<g>
	<path class="st7" d="M606.8,869.9c6.1-0.1,20.5-7.1,20.5-7.1l-0.5-2.6c0,0-17.2,6.3-20.9,5L606.8,869.9z"/>
	<path class="st8" d="M729.8,831.6c0,0-29.1-21.1-65.8-16.3s-42.7,48.5-42.7,48.5L729.8,831.6z"/>
	<path class="st9" d="M729.8,831.6c0,0-12.9,33.5-46.2,49.5c-33.3,16-62.3-17.3-62.3-17.3L729.8,831.6z"/>
</g>
</svg>
