<?xml version="1.0" encoding="iso-8859-1"?>
<!-- Generator: Adobe Illustrator 19.0.0, SVG Export Plug-In . SVG Version: 6.00 Build 0)  -->
<svg version="1.1" id="Layer_1" xmlns="http://www.w3.org/2000/svg" xmlns:xlink="http://www.w3.org/1999/xlink" x="0px" y="0px"
	 viewBox="0 0 512 512" style="enable-background:new 0 0 512 512;" xml:space="preserve">
<g>
	<path style="fill:#D1E5F5;" d="M410.655,64.333l-18.944-18.945H120.289l-18.944,18.945c-11.569,11.568-18.068,27.258-18.068,43.619
		v111.036h345.446V107.952C428.723,91.591,422.224,75.901,410.655,64.333z"/>
	<path style="fill:#D1E5F5;" d="M83.277,453.398c0,27.254,22.095,49.349,49.349,49.349h246.747
		c27.254,0,49.349-22.095,49.349-49.349V342.361H83.277V453.398z"/>
</g>
<path style="fill:#B4D8F1;" d="M410.655,64.333l-18.944-18.945h-61.687l18.944,18.944c11.569,11.569,18.068,27.259,18.068,43.62
	v345.446c0,27.254-22.095,49.349-49.349,49.349h61.687c27.254,0,49.349-22.095,49.349-49.349V107.952
	C428.723,91.591,422.224,75.901,410.655,64.333z"/>
<rect x="83.277" y="206.651" style="fill:#EDEDED;" width="345.446" height="148.048"/>
<rect x="367.036" y="206.651" style="fill:#D8D8DA;" width="61.687" height="148.048"/>
<ellipse style="fill:#95D5A7;" cx="256" cy="280.675" rx="98.699" ry="123.373"/>
<path style="fill:#D8CCBC;" d="M422.554,58.602H89.446c-3.393,0-6.169-2.776-6.169-6.169V15.422c0-3.393,2.776-6.169,6.169-6.169
	h333.108c3.393,0,6.169,2.776,6.169,6.169v37.012C428.723,55.827,425.947,58.602,422.554,58.602z"/>
<path style="fill:#B29A7E;" d="M422.554,9.253h-49.349c3.393,0,6.169,2.776,6.169,6.169v37.012c0,3.393-2.776,6.169-6.169,6.169
	h49.349c3.393,0,6.169-2.776,6.169-6.169V15.422C428.723,12.029,425.947,9.253,422.554,9.253z"/>
<path style="fill:#2E2D31;" d="M107.888,84.09l16.235-16.235h298.432c8.504,0,15.422-6.918,15.422-15.422V15.422
	C437.976,6.918,431.058,0,422.554,0H89.446c-8.504,0-15.422,6.918-15.422,15.422v37.012c0,8.504,6.918,15.422,15.422,15.422h8.505
	l-3.15,3.15c-13.398,13.398-20.777,31.213-20.777,50.161v97.822v123.373v24.675c0,5.111,4.143,9.253,9.253,9.253
	c5.11,0,9.253-4.142,9.253-9.253v-15.422h72.298c19.166,37.049,52.87,61.687,91.172,61.687s72.004-24.638,91.172-61.687h72.298
	v101.783c0,22.11-17.988,40.096-40.096,40.096H132.627c-22.109,0-40.096-17.987-40.096-40.096v-49.344
	c0-5.111-4.143-9.253-9.253-9.253c-5.11,0-9.253,4.142-9.253,9.253v49.344c0,32.313,26.29,58.602,58.602,58.602h246.747
	c32.313,0,58.602-26.29,58.602-58.602V342.361V218.988v-97.822c0-10.828-2.533-21.685-7.326-31.395
	c-2.261-4.583-7.812-6.464-12.393-4.202c-4.582,2.261-6.464,7.811-4.202,12.393c3.542,7.177,5.415,15.201,5.415,23.204v88.569
	h-72.298c-19.166-37.049-52.87-61.687-91.172-61.687s-72.006,24.638-91.172,61.687H92.53v-88.569
	C92.53,107.161,97.984,93.995,107.888,84.09z M92.53,18.506h326.94v30.843H92.53V18.506z M419.47,228.241v104.867h-64.321
	c5.659-16.092,8.803-33.819,8.803-52.434s-3.144-36.342-8.803-52.434H419.47z M256,166.554c49.321,0,89.446,51.194,89.446,114.12
	S305.321,394.795,256,394.795s-89.446-51.194-89.446-114.12S206.679,166.554,256,166.554z M156.851,228.241
	c-5.659,16.092-8.803,33.819-8.803,52.434s3.144,36.342,8.803,52.434H92.53V228.241H156.851z"/>
<g>
</g>
<g>
</g>
<g>
</g>
<g>
</g>
<g>
</g>
<g>
</g>
<g>
</g>
<g>
</g>
<g>
</g>
<g>
</g>
<g>
</g>
<g>
</g>
<g>
</g>
<g>
</g>
<g>
</g>
</svg>
