<?xml version="1.0" standalone="no"?>
<!DOCTYPE svg PUBLIC "-//W3C//DTD SVG 20010904//EN"
 "http://www.w3.org/TR/2001/REC-SVG-20010904/DTD/svg10.dtd">
<svg version="1.0" xmlns="http://www.w3.org/2000/svg"
 width="1280.000000pt" height="905.000000pt" viewBox="0 0 1280.000000 905.000000"
 preserveAspectRatio="xMidYMid meet">
<g transform="translate(0.000000,905.000000) scale(0.100000,-0.100000)"
fill="#000000" stroke="none">
<path d="M11245 7714 c-350 -47 -524 -143 -990 -543 -121 -103 -329 -282 -439
-376 -225 -192 -491 -396 -894 -684 -287 -205 -389 -280 -504 -373 -54 -43
-104 -78 -113 -78 -8 0 -325 176 -704 390 l-689 390 -2883 0 -2882 0 -43 -25
c-27 -16 -54 -44 -71 -73 l-28 -47 -3 -2040 c-2 -1505 0 -2054 8 -2093 9 -41
22 -64 54 -98 l43 -44 2916 0 2917 0 907 513 c499 281 921 527 939 544 18 18
38 50 43 70 7 25 11 303 11 811 0 609 3 773 13 776 6 2 84 21 172 41 610 143
1363 377 1725 537 425 188 704 373 888 591 224 264 345 556 373 899 40 476
-130 789 -481 888 -72 20 -222 33 -285 24z m272 -189 c312 -98 440 -567 283
-1037 -96 -286 -287 -516 -626 -753 -296 -208 -592 -346 -1137 -531 -122 -41
-285 -93 -362 -115 -459 -133 -816 -229 -827 -223 -4 3 -8 92 -8 197 0 106 -5
209 -10 229 -17 60 -53 93 -188 169 -125 70 -162 95 -162 109 0 9 220 169 520
377 474 328 585 412 999 758 522 436 598 496 779 618 256 173 387 224 574 226
66 1 105 -5 165 -24z m-4007 -2901 c111 -33 219 -127 268 -232 24 -51 27 -69
27 -167 0 -103 -2 -114 -32 -178 -80 -169 -264 -268 -442 -237 -86 15 -191 71
-243 129 -67 75 -101 160 -106 262 -5 108 13 175 71 260 47 71 137 139 215
163 63 20 176 20 242 0z"/>
</g>
</svg>
