<?xml version="1.0" encoding="iso-8859-1"?>
<!-- Generator: Adobe Illustrator 19.0.0, SVG Export Plug-In . SVG Version: 6.00 Build 0)  -->
<svg version="1.1" id="Layer_1" xmlns="http://www.w3.org/2000/svg" xmlns:xlink="http://www.w3.org/1999/xlink" x="0px" y="0px"
	 viewBox="0 0 512 512" style="enable-background:new 0 0 512 512;" xml:space="preserve">
<polygon style="fill:#F8E99B;" points="268.563,210.769 279.871,312.54 347.719,312.54 336.411,210.769 "/>
<polygon style="fill:#F6E27D;" points="347.719,312.54 336.411,210.769 268.563,210.769 272.332,244.692 307.333,244.692 
	317.025,312.54 "/>
<path style="fill:#797781;" d="M462.581,448.235H359.026l-33.924-237.466h135.695l22.616,147.003l12.078,48.312
	C500.845,427.494,484.651,448.235,462.581,448.235z"/>
<path style="fill:#58575D;" d="M495.492,406.083l-12.078-48.312l-22.616-147.003H325.103l4.847,33.924h102.144l17.397,113.079
	l12.078,48.312c5.353,21.41-10.841,42.151-32.911,42.151h33.924C484.651,448.235,500.845,427.494,495.492,406.083z"/>
<path style="fill:#88888F;" d="M132.868,63.766l11.308,158.311h325.42c19.687,0,35.24-16.703,33.838-36.34l-6.461-90.463
	c-1.268-17.752-16.04-31.507-33.838-31.507C463.135,63.766,132.868,63.766,132.868,63.766z"/>
<g>
	<path style="fill:#797781;" d="M503.433,185.735l-6.461-90.463c-1.268-17.752-16.04-31.506-33.838-31.506H429.21
		c17.798,0,32.569,13.754,33.838,31.506l6.461,90.463c1.402,19.637-14.15,36.34-33.838,36.34h33.924
		C489.284,222.076,504.836,205.372,503.433,185.735z"/>
	<path style="fill:#797781;" d="M438.182,140.094h-27.37c-4.684,0-8.481-3.797-8.481-8.481c0-4.684,3.797-8.481,8.481-8.481h27.37
		c4.684,0,8.481,3.797,8.481,8.481C446.663,136.297,442.866,140.094,438.182,140.094z"/>
	<path style="fill:#797781;" d="M381.077,140.094H178.1c-4.684,0-8.481-3.797-8.481-8.481c0-4.684,3.797-8.481,8.481-8.481h202.977
		c4.684,0,8.481,3.797,8.481,8.481C389.558,136.297,385.761,140.094,381.077,140.094z"/>
</g>
<g>
	<path style="fill:#2E2D31;" d="M491.724,356.043l-15.469-92.819c-0.77-4.62-5.146-7.738-9.76-6.971
		c-4.62,0.77-7.741,5.139-6.971,9.76l15.526,93.152c0.037,0.223,0.084,0.444,0.138,0.663l12.078,48.312
		c1.913,7.653,0.226,15.611-4.629,21.829c-4.856,6.219-12.165,9.785-20.055,9.785H366.33c0,0-27.918-186.119-27.918-186.12
		l-3.461-23.076h134.646c11.73,0,23.041-4.923,31.035-13.507c7.992-8.585,12.098-20.219,11.263-31.918l-6.461-90.463
		c-1.577-22.084-20.156-39.383-42.297-39.383H132.868c-2.354,0-4.602,0.978-6.207,2.701c-1.605,1.722-2.421,4.035-2.253,6.383
		l11.308,158.311c0.317,4.438,4.01,7.877,8.459,7.877h116.9l10.38,83.034c0.53,4.244,4.139,7.429,8.415,7.429h51.497l19.271,128.473
		c0.623,4.151,4.19,7.222,8.387,7.222h103.555c13.149,0,25.331-5.945,33.424-16.308c8.092-10.364,10.904-23.625,7.715-36.381
		L491.724,356.043z M141.977,72.247h321.158c13.285,0,24.432,10.38,25.378,23.63l6.461,90.463
		c0.509,7.123-1.891,13.925-6.758,19.151c-4.867,5.227-11.479,8.104-18.621,8.104H152.072L141.977,72.247z M287.358,304.059
		l-9.188-73.501h39.445l9.188,73.501H287.358z"/>
	<path style="fill:#2E2D31;" d="M87.636,213.596c-38.969,0-70.674-31.705-70.674-70.674s31.704-70.675,70.673-70.675
		c4.684,0,8.481-3.797,8.481-8.481s-3.797-8.481-8.481-8.481C39.313,55.285,0,94.599,0,142.921
		c0,48.323,39.313,87.636,87.636,87.636c4.684,0,8.481-3.797,8.481-8.481C96.117,217.393,92.32,213.596,87.636,213.596z"/>
	<path style="fill:#2E2D31;" d="M87.636,117.478c4.684,0,8.481-3.797,8.481-8.481s-3.797-8.481-8.481-8.481
		c-23.383,0-42.405,19.022-42.405,42.405s19.022,42.405,42.405,42.405c4.684,0,8.481-3.797,8.481-8.481
		c0-4.684-3.797-8.481-8.481-8.481c-14.03,0-25.443-11.413-25.443-25.443S73.607,117.478,87.636,117.478z"/>
</g>
<g>
</g>
<g>
</g>
<g>
</g>
<g>
</g>
<g>
</g>
<g>
</g>
<g>
</g>
<g>
</g>
<g>
</g>
<g>
</g>
<g>
</g>
<g>
</g>
<g>
</g>
<g>
</g>
<g>
</g>
</svg>
